<svg id="visual" viewBox="0 0 900 675" width="900" height="675" xmlns="http://www.w3.org/2000/svg" xmlns:xlink="http://www.w3.org/1999/xlink" version="1.1"><rect width="900" height="675" fill="#FFFFFF"></rect><g><g transform="translate(794 496)"><path d="M87 -85.5C105 -69.1 106.3 -34.5 101 -5.3C95.6 23.8 83.6 47.7 65.6 69.8C47.7 92 23.8 112.4 -4.3 116.7C-32.5 121 -65 109.3 -88.2 87.2C-111.4 65 -125.2 32.5 -124.4 0.8C-123.7 -31 -108.3 -62 -85.2 -78.4C-62 -94.9 -31 -96.8 1.8 -98.5C34.5 -100.3 69.1 -102 87 -85.5Z" fill="#4FACF7"></path></g><g transform="translate(571 49)"><path d="M101.5 -88.6C129.3 -73.6 148.3 -36.8 147.9 -0.3C147.6 36.1 128 72.3 100.1 98.7C72.3 125.2 36.1 142 1.2 140.8C-33.8 139.6 -67.6 120.5 -92.1 94C-116.6 67.6 -131.8 33.8 -131.4 0.4C-130.9 -33 -114.9 -65.9 -90.4 -80.9C-65.9 -95.9 -33 -92.9 1.9 -94.8C36.8 -96.7 73.6 -103.6 101.5 -88.6Z" fill="#4FACF7"></path></g><g transform="translate(288 238)"><path d="M89.3 -96.1C104.8 -73.7 99.1 -36.9 96.1 -3C93.1 30.9 92.8 61.7 77.3 82.9C61.7 104.1 30.9 115.7 -1.4 117.1C-33.7 118.6 -67.5 109.9 -88 88.7C-108.5 67.5 -115.7 33.7 -110.2 5.5C-104.8 -22.8 -86.5 -45.5 -66 -67.9C-45.5 -90.3 -22.8 -112.3 7 -119.4C36.9 -126.4 73.7 -118.5 89.3 -96.1Z" fill="#4FACF7"></path></g><g transform="translate(69 670)"><path d="M93.3 -90.3C113.4 -73.3 116.9 -36.6 118.2 1.3C119.5 39.3 118.6 78.5 98.6 97.2C78.5 115.8 39.3 113.9 3.9 110C-31.5 106.1 -63 100.3 -80.2 81.6C-97.3 63 -100.2 31.5 -100.7 -0.5C-101.2 -32.5 -99.4 -65 -82.2 -82.1C-65 -99.1 -32.5 -100.7 2.1 -102.8C36.6 -104.8 73.3 -107.4 93.3 -90.3Z" fill="#4FACF7"></path></g><g transform="translate(16 22)"><path d="M60.6 -70.5C78.7 -42.6 93.6 -21.3 101.5 8C109.5 37.2 110.6 74.4 92.5 97.5C74.4 120.6 37.2 129.6 7.2 122.4C-22.8 115.2 -45.5 91.7 -68.1 68.6C-90.7 45.5 -113.1 22.8 -112.1 1C-111.1 -20.7 -86.6 -41.4 -64 -69.3C-41.4 -97.2 -20.7 -132.3 0.3 -132.6C21.3 -132.9 42.6 -98.4 60.6 -70.5Z" fill="#4FACF7"></path></g><g transform="translate(445 544)"><path d="M73.9 -84.2C89.4 -58.4 91.2 -29.2 94.5 3.3C97.8 35.8 102.7 71.7 87.2 95.9C71.7 120 35.8 132.6 -0.2 132.8C-36.3 133.1 -72.6 121 -92.1 96.8C-111.6 72.6 -114.2 36.3 -109.8 4.4C-105.3 -27.4 -93.8 -54.8 -74.3 -80.6C-54.8 -106.3 -27.4 -130.4 0.9 -131.3C29.2 -132.2 58.4 -109.9 73.9 -84.2Z" fill="#4FACF7"></path></g></g></svg>