<svg id="visual" viewBox="0 0 900 675" width="900" height="675" xmlns="http://www.w3.org/2000/svg" xmlns:xlink="http://www.w3.org/1999/xlink" version="1.1"><rect x="0" y="0" width="900" height="675" fill="#FFFFFF"></rect><defs><linearGradient id="grad1_0" x1="25%" y1="0%" x2="100%" y2="100%"><stop offset="23.333333333333336%" stop-color="#4facf7" stop-opacity="1"></stop><stop offset="76.66666666666666%" stop-color="#4facf7" stop-opacity="1"></stop></linearGradient></defs><defs><linearGradient id="grad1_1" x1="25%" y1="0%" x2="100%" y2="100%"><stop offset="23.333333333333336%" stop-color="#4facf7" stop-opacity="1"></stop><stop offset="76.66666666666666%" stop-color="#b4d4fc" stop-opacity="1"></stop></linearGradient></defs><defs><linearGradient id="grad1_2" x1="25%" y1="0%" x2="100%" y2="100%"><stop offset="23.333333333333336%" stop-color="#ffffff" stop-opacity="1"></stop><stop offset="76.66666666666666%" stop-color="#b4d4fc" stop-opacity="1"></stop></linearGradient></defs><defs><linearGradient id="grad2_0" x1="0%" y1="0%" x2="75%" y2="100%"><stop offset="23.333333333333336%" stop-color="#4facf7" stop-opacity="1"></stop><stop offset="76.66666666666666%" stop-color="#4facf7" stop-opacity="1"></stop></linearGradient></defs><defs><linearGradient id="grad2_1" x1="0%" y1="0%" x2="75%" y2="100%"><stop offset="23.333333333333336%" stop-color="#b4d4fc" stop-opacity="1"></stop><stop offset="76.66666666666666%" stop-color="#4facf7" stop-opacity="1"></stop></linearGradient></defs><defs><linearGradient id="grad2_2" x1="0%" y1="0%" x2="75%" y2="100%"><stop offset="23.333333333333336%" stop-color="#b4d4fc" stop-opacity="1"></stop><stop offset="76.66666666666666%" stop-color="#ffffff" stop-opacity="1"></stop></linearGradient></defs><g transform="translate(900, 0)"><path d="M0 534.4C-45.6 486.2 -91.1 438 -134.4 413.7C-177.7 389.4 -218.7 388.9 -276.8 381C-335 373.2 -410.4 358.1 -432.3 314.1C-454.2 270.1 -422.7 197.2 -430.8 140C-438.9 82.8 -486.7 41.4 -534.4 0L0 0Z" fill="#dbe9fd"></path><path d="M0 356.3C-30.4 324.1 -60.8 292 -89.6 275.8C-118.5 259.6 -145.8 259.2 -184.6 254C-223.3 248.8 -273.6 238.7 -288.2 209.4C-302.8 180.1 -281.8 131.4 -287.2 93.3C-292.6 55.2 -324.4 27.6 -356.2 0L0 0Z" fill="#88c0f9"></path><path d="M0 178.1C-15.2 162.1 -30.4 146 -44.8 137.9C-59.2 129.8 -72.9 129.6 -92.3 127C-111.7 124.4 -136.8 119.4 -144.1 104.7C-151.4 90 -140.9 65.7 -143.6 46.7C-146.3 27.6 -162.2 13.8 -178.1 0L0 0Z" fill="#4facf7"></path></g><g transform="translate(0, 675)"><path d="M0 -534.4C55.5 -516.5 111 -498.6 152 -467.9C193.1 -437.2 219.6 -393.8 269.8 -371.3C320 -348.9 393.8 -347.5 432.3 -314.1C470.8 -280.7 473.9 -215.3 485 -157.6C496.2 -99.9 515.3 -50 534.4 0L0 0Z" fill="#dbe9fd"></path><path d="M0 -356.2C37 -344.3 74 -332.4 101.4 -311.9C128.7 -291.5 146.4 -262.5 179.9 -247.6C213.3 -232.6 262.6 -231.7 288.2 -209.4C313.9 -187.1 315.9 -143.5 323.4 -105.1C330.8 -66.6 343.5 -33.3 356.3 0L0 0Z" fill="#88c0f9"></path><path d="M0 -178.1C18.5 -172.2 37 -166.2 50.7 -156C64.4 -145.7 73.2 -131.3 89.9 -123.8C106.7 -116.3 131.3 -115.8 144.1 -104.7C156.9 -93.6 158 -71.8 161.7 -52.5C165.4 -33.3 171.8 -16.7 178.1 0L0 0Z" fill="#4facf7"></path></g></svg>